# xmcd
#
# Track frame offsets: 
#        150
#        23970
#        44601
#        62753
#        86376
#        105736
#        124467
#        144186
#        166972
#        188193
#        205761
#        221602
#        238219
#        257203
#
# Disc length: 3669 seconds
#
# Revision: 0
# Processed by: cddbd v1.5.2PL0 Copyright (c) Steve Scherf et al.
# Submitted via: ExactAudioCopy v0.99pb3
#
DISCID=ce0e530e
DTITLE=내츄럴 - natural special
DYEAR=2008
DGENRE=Ballad
TTITLE0=California - Featuring 하림
TTITLE1=아직 넌 소중해 - Featuring 한얼
TTITLE2=보내는 마음 - Featuring 별
TTITLE3=그대만의 나이길 - Featuring 김연우
TTITLE4=보내지 못한 편지 - Featuring 윤종신
TTITLE5=내 여자친구가 되어줄래 - Featuring 이승환+이소은
TTITLE6=그리고..태양은 빛났다 - Featuring 지우+김효수
TTITLE7=다음 세상에서 - Featuring 어썸
TTITLE8=그녀의 집앞에서 - Featuring 양해중
TTITLE9=고마워! 내 친구야 - Featuring 유희열
TTITLE10=라면송 - Featuring 김광진
TTITLE11=있잖아 - Featuring 이현기
TTITLE12=보내는 마음 - Featuring 양해중 - New Mix
TTITLE13=보내는 마음 - Instrumental - 별 Version
EXTD=
EXTT0=
EXTT1=
EXTT2=
EXTT3=
EXTT4=
EXTT5=
EXTT6=
EXTT7=
EXTT8=
EXTT9=
EXTT10=
EXTT11=
EXTT12=
EXTT13=
PLAYORDER=
